#!OML:ASF H:\Male1\Project 1\Capture day 1\Session 1\Male1.ASF
:FULLY-SPECIFIED
:DEGREES
686
root 43.4326 14.9091 0.755816 898.219 -21.5085 -898.367
lowerback 6.39363 1.67177 1.38681
upperback 4.7981 2.0009 -0.494141
thorax 1.43075 0.918681 -1.387
lowerneck -0.484458 7.25764 13.5253
upperneck 4.4503 9.86711 -10.1454
head 2.57633 4.94271 -4.92143
rclavicle 2.71341e-014 -2.98177e-015
rhumerus -38.6967 -4.59837 -85.832
rradius 35.065
rwrist -25.4424
rhand -24.7222 -0.203865
rfingers 7.12502
rthumb 1.7799 -30.1762
lclavicle 2.71341e-014 -2.98177e-015
lhumerus -29.7268 20.7821 74.1204
lradius 19.5024
lwrist -16.4338
lhand -15.8017 -0.106318
lfingers 7.12502
lthumb 10.3914 29.6169
rfemur -11.411 -1.43814 25.9556
rtibia 39.138
rfoot -51.357 -28.4397
rtoes 10.0029
lfemur -14.2092 4.40014 -21.731
ltibia 43.2081
lfoot -36.5593 20.957
ltoes 11.4787
687
root 43.4391 14.9128 0.756348 898.252 -22.7353 -898.914
lowerback 6.40812 1.77245 0.630904
upperback 4.90137 2.09263 -0.623224
thorax 1.50768 0.9451 -1.10014
lowerneck -0.714195 7.04778 13.3388
upperneck 4.32317 9.55387 -10.0525
head 2.52496 4.78022 -4.87572
rclavicle -8.20981e-014 3.89618e-014
rhumerus -38.5875 -4.42385 -85.7873
rradius 35.0186
rwrist -25.2587
rhand -24.5016 -0.212265
rfingers 7.12502
rthumb 1.99289 -30.1827
lclavicle -8.20981e-014 3.89618e-014
lhumerus -30.1322 21.3882 73.8164
lradius 19.8462
lwrist -16.274
lhand -15.6385 0.302329
lfingers 7.12502
lthumb 10.5489 30.0176
rfemur -11.4355 -2.33209 25.3184
rtibia 39.5888
rfoot -51.9375 -27.944
rtoes 11.6036
lfemur -13.5144 2.02331 -22.5319
ltibia 42.2863
lfoot -37.1895 20.9825
ltoes 12.916
688
root 43.4461 14.9177 0.762167 898.304 -24.024 -899.545
lowerback 6.52175 1.94797 -0.0421074
upperback 5.01791 2.2825 -0.914851
thorax 1.55426 1.02163 -1.03462
lowerneck -0.922951 6.71621 13.4376
upperneck 4.13227 9.07119 -9.97145
head 2.44596 4.53848 -4.88943
rclavicle -5.11374e-014 1.19271e-014
rhumerus -38.595 -4.63879 -85.8986
rradius 35.1137
rwrist -25.1553
rhand -24.4739 -0.223603
rfingers 7.12502
rthumb 2.01972 -30.1938
lclavicle -5.11374e-014 1.19271e-014
lhumerus -30.2115 21.3294 73.6978
lradius 19.9775
lwrist -16.4695
lhand -15.3123 0.643271
lfingers 7.12502
lthumb 10.8635 30.3423
rfemur -11.5906 -3.30683 24.5712
rtibia 40.3109
rfoot -51.7421 -28.4037
rtoes 10.1232
lfemur -12.9791 0.00115154 -23.3829
ltibia 41.5365
lfoot -36.7416 22.1602
ltoes 10.1627
689
root 43.4497 14.9258 0.77271 898.402 -25.2436 -899.961
lowerback 6.61769 2.03535 -0.53077
upperback 5.06525 2.36838 -1.11229
thorax 1.53964 1.0516 -0.971283
lowerneck -1.04932 6.49513 13.3026
upperneck 3.91249 8.74564 -9.78266
head 2.34835 4.37459 -4.82702
rclavicle 3.49861e-014 -1.74931e-014
rhumerus -38.5163 -4.62321 -86.0281
rradius 35.0953
rwrist -24.9227
rhand -24.4711 -0.261585
rfingers 7.12502
rthumb 2.02236 -30.2317
lclavicle 3.49861e-014 -1.74931e-014
lhumerus -30.2163 19.7437 74.5673
lradius 20.1304
lwrist -12.3645
lhand -14.6202 1.49905
lfingers 7.12502
lthumb 11.5311 31.1619
rfemur -11.9502 -4.4879 23.9577
rtibia 41.1213
rfoot -51.7 -28.1157
rtoes 9.98825
lfemur -12.6165 -2.14829 -24.0659
ltibia 40.8218
lfoot -36.4571 23.3901
ltoes 9.06924
690
root 43.4514 14.9376 0.783318 898.702 -26.3837 -900.135
lowerback 6.46706 2.1106 -0.774196
upperback 5.00118 2.46753 -1.28944
thorax 1.55543 1.10096 -1.01824
lowerneck -1.18916 6.35118 13.1294
upperneck 3.80324 8.52412 -9.52635
head 2.29423 4.26308 -4.72973
rclavicle 5.37713e-014 -1.03368e-014
rhumerus -38.3812 -4.79804 -86.1111
rradius 34.9814
rwrist -24.6789
rhand -24.0879 -0.114015
rfingers 7.12502
rthumb 2.39243 -30.0803
lclavicle 5.37713e-014 -1.03368e-014
lhumerus -30.299 18.8977 74.8725
lradius 20.4137
lwrist -10.4452
lhand -14.2247 2.22715
lfingers 7.12502
lthumb 11.9124 31.8682
rfemur -12.621 -5.47176 23.587
rtibia 41.9829
rfoot -49.5325 -29.9488
rtoes 3.33292
lfemur -12.6592 -2.81518 -24.2645
ltibia 40.2055
lfoot -35.803 23.5187
ltoes 8.63534
691
root 43.4577 14.9478 0.795852 898.636 -27.4963 -900.162
lowerback 6.6985 2.18638 -0.984782
upperback 4.99246 2.54982 -1.39537
thorax 1.41504 1.13675 -1.02225
lowerneck -1.31516 6.19984 13.009
upperneck 3.74878 8.29725 -9.31369
head 2.25856 4.14938 -4.65409
rclavicle -4.77083e-015 9.14409e-015
rhumerus -38.3377 -4.74917 -86.2985
rradius 35.0593
rwrist -24.5787
rhand -23.5477 0.157254
rfingers 7.12502
rthumb 2.91418 -29.8026
lclavicle -4.77083e-015 9.14409e-015
lhumerus -30.4123 18.3335 75.0036
lradius 20.8486
lwrist -9.69979
lhand -14.0409 2.83518
lfingers 7.12502
lthumb 12.0896 32.4659
rfemur -12.9348 -6.49883 23.272
rtibia 42.866
rfoot -46.9336 -31.4555
rtoes -2.8798
lfemur -12.4032 -3.11321 -24.2822
ltibia 39.6582
lfoot -35.224 23.6794
ltoes 7.09453
692
root 43.4624 14.9553 0.812927 898.24 -28.6658 -900.106
lowerback 7.28089 2.15225 -1.19447
upperback 5.0418 2.4675 -1.36211
thorax 1.13299 1.08466 -0.88637
lowerneck -1.3037 6.07751 12.6737
upperneck 3.62318 8.12903 -9.09829
head 2.17769 4.06436 -4.54598
rclavicle 8.74653e-015 -1.43125e-014
rhumerus -38.3333 -4.14053 -86.5774
rradius 35.2215
rwrist -24.0605
rhand -23.4742 0.20267
rfingers 7.12502
rthumb 2.98516 -29.7562
lclavicle 8.74653e-015 -1.43125e-014
lhumerus -30.6997 18.0913 75.2355
lradius 21.4153
lwrist -9.0346
lhand -13.9249 3.27087
lfingers 7.12502
lthumb 12.2015 32.895
rfemur -12.9405 -7.40003 22.9281
rtibia 43.8334
rfoot -45.6345 -31.2557
rtoes -3.48971
lfemur -11.925 -3.32423 -24.2461
ltibia 39.2254
lfoot -34.5153 23.8216
ltoes 3.64353
693
root 43.4612 14.9716 0.83364 897.954 -29.9974 -899.905
lowerback 7.68755 1.8746 -1.2997
upperback 5.06023 2.0803 -1.18896
thorax 0.914589 0.885425 -0.637331
lowerneck -1.26955 6.12188 12.0681
upperneck 3.53291 8.19863 -8.94526
head 2.12153 4.09343 -4.40269
rclavicle 8.37877e-014 1.07344e-014
rhumerus -38.2779 -2.95164 -86.855
rradius 35.4562
rwrist -23.6698
rhand -23.6412 0.197736
rfingers 7.12502
rthumb 2.8239 -29.7633
lclavicle 8.37877e-014 1.07344e-014
lhumerus -31.128 18.3106 75.5445
lradius 22.0928
lwrist -8.28622
lhand -14.0572 3.63581
lfingers 7.12502
lthumb 12.0739 33.2675
rfemur -13.1702 -8.37386 22.6419
rtibia 44.8826
rfoot -46.1816 -29.0725
rtoes 2.27872
lfemur -11.6522 -4.56564 -24.2451
ltibia 38.8271
lfoot -34.1292 24.3685
ltoes 2.25762
694
root 43.4591 14.9895 0.856899 897.787 -31.4233 -899.584
lowerback 7.97991 1.8469 -0.887763
upperback 5.06196 2.06006 -1.32359
thorax 0.775675 0.88615 -1.01345
lowerneck -1.60572 5.87173 12.2605
upperneck 3.56502 7.81986 -8.8839
head 2.15082 3.9019 -4.42197
rclavicle -8.22969e-014 2.14687e-014
rhumerus -38.3275 -3.05275 -87.2115
rradius 35.9483
rwrist -23.7298
rhand -23.6221 0.351827
rfingers 7.12502
rthumb 2.84232 -29.609
lclavicle -8.22969e-014 2.14687e-014
lhumerus -31.0328 17.1984 75.9629
lradius 22.7629
lwrist -7.5226
lhand -14.0615 3.99507
lfingers 7.12502
lthumb 12.0698 33.627
rfemur -13.7152 -9.70951 22.3695
rtibia 46.0888
rfoot -43.4143 -29.4667
rtoes -2.24759
lfemur -11.7195 -5.23491 -24.0343
ltibia 38.5023
lfoot -33.0923 24.3937
ltoes 1.40213
695
root 43.459 15.0085 0.878725 897.452 -32.6225 -899.226
lowerback 8.37761 1.80588 -0.614057
upperback 5.10189 2.01027 -1.32284
thorax 0.607876 0.864649 -1.17334
lowerneck -1.75388 5.66963 12.1833
upperneck 3.4853 7.53204 -8.87537
head 2.11734 3.75416 -4.41788
rclavicle 1.91827e-014 -1.94809e-014
rhumerus -38.1574 -3.26381 -87.1368
rradius 35.9234
rwrist -22.1525
rhand -21.7404 1.36516
rfingers 7.12502
rthumb 4.65945 -28.5636
lclavicle 1.91827e-014 -1.94809e-014
lhumerus -31.0721 16.5568 76.3544
lradius 23.4839
lwrist -7.02111
lhand -14.1004 4.28298
lfingers 7.12502
lthumb 12.0323 33.9171
rfemur -14.199 -10.8307 22.107
rtibia 47.3952
rfoot -40.099 -29.4851
rtoes -5.54668
lfemur -11.462 -7.72539 -24.0854
ltibia 38.1457
lfoot -33.3785 25.2136
ltoes 3.12697
696
root 43.4617 15.02 0.89484 897.185 -33.6513 -899.023
lowerback 8.72767 1.83827 -0.507017
upperback 5.15223 2.04634 -1.37582
thorax 0.474715 0.881842 -1.30034
lowerneck -1.80858 5.48712 12.0202
upperneck 3.25146 7.26665 -8.6025
head 2.01248 3.62256 -4.32232
rclavicle 4.09496e-014 -7.15625e-015
rhumerus -37.9499 -2.86586 -87.6833
rradius 36.4082
rwrist -22.9705
rhand -21.7046 1.41095
rfingers 7.12502
rthumb 4.69398 -28.517
lclavicle 4.09496e-014 -7.15625e-015
lhumerus -30.9598 15.6851 76.827
lradius 23.9739
lwrist -6.64569
lhand -14.1206 4.54626
lfingers 7.12502
lthumb 12.0129 34.1815
rfemur -14.7446 -11.4156 21.7976
rtibia 48.7613
rfoot -36.4905 -29.761
rtoes -7.86006
lfemur -11.2536 -8.67583 -24.0339
ltibia 37.7072
lfoot -32.9458 25.0572
ltoes 5.23262
697
root 43.4691 15.028 0.906642 897.08 -34.642 -898.97
lowerback 9.02306 1.90824 -0.523154
upperback 5.15625 2.12625 -1.50602
thorax 0.3233 0.920454 -1.44119
lowerneck -1.85211 5.31992 11.8888
upperneck 3.01236 7.01735 -8.20524
head 1.90367 3.50122 -4.19298
rclavicle 3.60794e-014 -7.95139e-015
rhumerus -37.6812 -2.99589 -88.0033
rradius 36.4683
rwrist -22.5411
rhand -21.3664 1.84639
rfingers 7.12502
rthumb 5.0206 -28.0741
lclavicle 3.60794e-014 -7.95139e-015
lhumerus -30.8798 14.576 77.285
lradius 24.6339
lwrist -5.91204
lhand -14.1391 4.98783
lfingers 7.12502
lthumb 11.995 34.6241
rfemur -15.3952 -11.525 21.498
rtibia 50.0958
rfoot -35.679 -28.2298
rtoes -2.17196
lfemur -11.1043 -9.7281 -24.0849
ltibia 37.2749
lfoot -32.8507 24.738
ltoes 8.52442
698
root 43.4746 15.0359 0.916538 896.805 -35.4455 -898.915
lowerback 9.45825 2.01859 -0.465879
upperback 5.1747 2.25694 -1.66389
thorax 0.116482 0.983739 -1.66156
lowerneck -1.88559 5.13512 11.8373
upperneck 2.90831 6.7538 -7.95306
head 1.84102 3.37191 -4.11964
rclavicle -3.69739e-014 -8.74653e-015
rhumerus -37.4985 -3.01523 -88.411
rradius 36.5638
rwrist -22.1912
rhand -21.43 2.03561
rfingers 7.12502
rthumb 4.95915 -27.8864
lclavicle -3.69739e-014 -8.74653e-015
lhumerus -30.8789 13.3694 77.6806
lradius 25.3653
lwrist -4.94524
lhand -14.186 5.45901
lfingers 7.12502
lthumb 11.9498 35.0979
rfemur -15.8117 -11.2425 21.2443
rtibia 51.2671
rfoot -31.5212 -28.9633
rtoes -9.08536
lfemur -10.0676 -16.5981 -25.1641
ltibia 36.75
lfoot -37.7237 26.8207
ltoes 18.8249
